<svg width="40" height="40" viewBox="0 0 40 40" fill="none" xmlns="http://www.w3.org/2000/svg">
<g clip-path="url(#clip0_34:433)">
<rect width="48" height="48" rx="3" fill="white"/>
<circle cx="19.9997" cy="20.0002" r="16.6667" fill="#181717"/>
<path d="M5.67773 28.5291C7.7066 31.9281 10.9115 34.5437 14.7309 35.8153C15.5647 35.9677 15.8686 35.4531 15.8686 35.0111C15.8686 34.8281 15.8655 34.5048 15.8614 34.0721C15.8566 33.5709 15.8505 32.9232 15.8461 32.177C11.2102 33.1837 10.232 29.9424 10.232 29.9424C9.47389 28.0178 8.38116 27.5052 8.38116 27.5052C6.86792 26.4708 8.49576 26.4913 8.49576 26.4913C10.1686 26.61 11.0485 28.2092 11.0485 28.2092C12.5352 30.7558 14.9498 30.0202 15.8993 29.5945C16.0507 28.5171 16.4804 27.7825 16.9572 27.3661C13.2565 26.9456 9.36544 25.5152 9.36544 19.1287C9.36544 17.3095 10.0151 15.8218 11.0813 14.6565C10.9094 14.2349 10.3374 12.5406 11.2439 10.2457C11.2439 10.2457 12.6436 9.79751 15.8277 11.9543C17.1568 11.585 18.583 11.3998 20.0001 11.3936C21.4151 11.3998 22.8414 11.585 24.1725 11.9543C27.3545 9.79751 28.7511 10.2457 28.7511 10.2457C29.6607 12.5406 29.0888 14.2349 28.9169 14.6565C29.9851 15.8218 30.6307 17.3095 30.6307 19.1287C30.6307 25.5316 26.7335 26.9405 23.0204 27.3528C23.619 27.8674 24.1521 28.8844 24.1521 30.4396C24.1521 31.9293 24.1429 33.2267 24.1368 34.0862C24.1338 34.5119 24.1316 34.8301 24.1316 35.0111C24.1316 35.4572 24.4314 35.9759 25.2775 35.8132C28.3201 34.7976 30.9724 32.9294 32.95 30.4919C29.8943 34.2589 25.2281 36.6666 19.9996 36.6666C13.9118 36.6666 8.58632 33.4026 5.67773 28.5291Z" fill="white"/>
</g>
<defs>
<clipPath id="clip0_34:433">
<rect width="40" height="40" rx="3" fill="white"/>
</clipPath>
</defs>
</svg>
