<svg width="40" height="41" viewBox="0 0 40 41" fill="none" xmlns="http://www.w3.org/2000/svg">
<g clip-path="url(#clip0)">
<path d="M20 3.66219C25.3438 3.66219 25.9766 3.68602 28.0781 3.78135C30.0313 3.86873 31.0859 4.20238 31.7891 4.48042C32.7188 4.84585 33.3906 5.29071 34.0859 5.99773C34.7891 6.71269 35.2188 7.38793 35.5781 8.33327C35.8516 9.04823 36.1797 10.1286 36.2656 12.1067C36.3594 14.2516 36.3828 14.895 36.3828 20.3208C36.3828 25.7545 36.3594 26.398 36.2656 28.5349C36.1797 30.5209 35.8516 31.5933 35.5781 32.3083C35.2188 33.2536 34.7813 33.9368 34.0859 34.6438C33.3828 35.3588 32.7188 35.7957 31.7891 36.1611C31.0859 36.4392 30.0234 36.7728 28.0781 36.8602C25.9688 36.9555 25.3359 36.9794 20 36.9794C14.6563 36.9794 14.0234 36.9555 11.9219 36.8602C9.96875 36.7728 8.91406 36.4392 8.21094 36.1611C7.28125 35.7957 6.60938 35.3509 5.91406 34.6438C5.21094 33.9289 4.78125 33.2536 4.42188 32.3083C4.14844 31.5933 3.82031 30.513 3.73438 28.5349C3.64063 26.39 3.61719 25.7465 3.61719 20.3208C3.61719 14.8871 3.64063 14.2436 3.73438 12.1067C3.82031 10.1207 4.14844 9.04823 4.42188 8.33327C4.78125 7.38793 5.21875 6.70475 5.91406 5.99773C6.61719 5.28277 7.28125 4.84585 8.21094 4.48042C8.91406 4.20238 9.97656 3.86873 11.9219 3.78135C14.0234 3.68602 14.6563 3.66219 20 3.66219ZM20 0C14.5703 0 13.8906 0.023832 11.7578 0.11916C9.63281 0.214488 8.17188 0.564025 6.90625 1.0645C5.58594 1.5888 4.46875 2.27993 3.35938 3.41592C2.24219 4.54397 1.5625 5.67997 1.04688 7.01456C0.554688 8.30944 0.210938 9.78702 0.117188 11.9478C0.0234375 14.1245 0 14.8156 0 20.3367C0 25.8578 0.0234375 26.5489 0.117188 28.7176C0.210938 30.8784 0.554688 32.3639 1.04688 33.6508C1.5625 34.9934 2.24219 36.1294 3.35938 37.2574C4.46875 38.3855 5.58594 39.0845 6.89844 39.6009C8.17188 40.1014 9.625 40.4509 11.75 40.5462C13.8828 40.6416 14.5625 40.6654 19.9922 40.6654C25.4219 40.6654 26.1016 40.6416 28.2344 40.5462C30.3594 40.4509 31.8203 40.1014 33.0859 39.6009C34.3984 39.0845 35.5156 38.3855 36.625 37.2574C37.7344 36.1294 38.4219 34.9934 38.9297 33.6588C39.4219 32.3639 39.7656 30.8863 39.8594 28.7255C39.9531 26.5568 39.9766 25.8657 39.9766 20.3446C39.9766 14.8235 39.9531 14.1324 39.8594 11.9637C39.7656 9.80291 39.4219 8.31738 38.9297 7.03045C38.4375 5.67997 37.7578 4.54397 36.6406 3.41592C35.5313 2.28788 34.4141 1.5888 33.1016 1.07244C31.8281 0.571969 30.375 0.222432 28.25 0.127104C26.1094 0.023832 25.4297 0 20 0Z" fill="white"/>
<path d="M20 9.89038C14.3281 9.89038 9.72656 14.5694 9.72656 20.3368C9.72656 26.1041 14.3281 30.7831 20 30.7831C25.6719 30.7831 30.2734 26.1041 30.2734 20.3368C30.2734 14.5694 25.6719 9.89038 20 9.89038ZM20 27.113C16.3203 27.113 13.3359 24.0784 13.3359 20.3368C13.3359 16.5951 16.3203 13.5605 20 13.5605C23.6797 13.5605 26.6641 16.5951 26.6641 20.3368C26.6641 24.0784 23.6797 27.113 20 27.113Z" fill="white"/>
<path d="M33.0781 9.47714C33.0781 10.8276 32 11.916 30.6797 11.916C29.3516 11.916 28.2812 10.8197 28.2812 9.47714C28.2812 8.12666 29.3594 7.03833 30.6797 7.03833C32 7.03833 33.0781 8.1346 33.0781 9.47714Z" fill="white"/>
</g>
<defs>
<clipPath id="clip0">
<rect width="40" height="40.6733" fill="white"/>
</clipPath>
</defs>
</svg>
