<svg width="48" height="48" viewBox="0 0 48 48" fill="none" xmlns="http://www.w3.org/2000/svg">
<g filter="url(#filter0_d_34:438)">
<path fill-rule="evenodd" clip-rule="evenodd" d="M6.80667 2.80667C4 5.61333 4 10.132 4 19.1667V20.8333C4 29.8667 4 34.3867 6.80667 37.1933C9.61333 40 14.132 40 23.1667 40H24.8333C33.8667 40 38.3867 40 41.1933 37.1933C44 34.3867 44 29.868 44 20.8333V19.1667C44 10.1333 44 5.61333 41.1933 2.80667C38.3867 0 33.868 0 24.8333 0H23.1667C14.1333 0 9.61333 0 6.80667 2.80667ZM11.9173 12.5H14.8333C15.5786 12.5 15.8587 12.8267 16.1386 13.6347C17.5653 17.7893 19.9706 21.4213 20.9586 21.4213C21.3307 21.4213 21.5 21.2507 21.5 20.308V16.0133C21.4332 14.7908 21.0061 14.2619 20.6897 13.8702C20.4944 13.6284 20.3413 13.4389 20.3413 13.1707C20.3413 12.844 20.62 12.5 21.0826 12.5H25.6667C26.2853 12.5 26.5 12.8307 26.5 13.572V19.3507C26.5 19.968 26.768 20.1853 26.9533 20.1853C27.324 20.1853 27.6333 19.968 28.3133 19.288C30.4146 16.94 31.8973 13.3253 31.8973 13.3253C32.0826 12.892 32.4253 12.5 33.1667 12.5H36.0826C36.9653 12.5 37.152 12.9547 36.9653 13.572C36.5947 15.272 33.0413 20.2773 33.0413 20.2773C32.732 20.772 32.608 21.0187 33.0413 21.5747C33.1942 21.7889 33.5205 22.1087 33.8935 22.4743C34.275 22.8482 34.7055 23.2701 35.0493 23.676C36.3027 25.0853 37.2467 26.2747 37.5093 27.0933C37.7506 27.916 37.3333 28.3333 36.5 28.3333H33.5826C32.8016 28.3333 32.4087 27.8959 31.5589 26.95C31.1987 26.5491 30.7565 26.0569 30.168 25.468C28.436 23.8 27.696 23.584 27.2627 23.584C26.676 23.584 26.5 23.7507 26.5 24.584V27.2C26.5 27.916 26.2707 28.3333 24.416 28.3333C21.3267 28.3333 17.9306 26.4573 15.5213 22.996C11.9053 17.9293 10.9173 14.0973 10.9173 13.3253C10.9173 12.892 11.084 12.5 11.9173 12.5Z" fill="white"/>
</g>
<defs>
<filter id="filter0_d_34:438" x="0" y="0" width="48" height="48" filterUnits="userSpaceOnUse" color-interpolation-filters="sRGB">
<feFlood flood-opacity="0" result="BackgroundImageFix"/>
<feColorMatrix in="SourceAlpha" type="matrix" values="0 0 0 0 0 0 0 0 0 0 0 0 0 0 0 0 0 0 127 0" result="hardAlpha"/>
<feOffset dy="4"/>
<feGaussianBlur stdDeviation="2"/>
<feComposite in2="hardAlpha" operator="out"/>
<feColorMatrix type="matrix" values="0 0 0 0 0 0 0 0 0 0 0 0 0 0 0 0 0 0 0.25 0"/>
<feBlend mode="normal" in2="BackgroundImageFix" result="effect1_dropShadow_34:438"/>
<feBlend mode="normal" in="SourceGraphic" in2="effect1_dropShadow_34:438" result="shape"/>
</filter>
</defs>
</svg>
